0
SECTION
2
HEADER
9
$INSUNITS
70
4
9
$ACADVER
1
AC1014
9
$HANDSEED
5
FFFF
0
ENDSEC
0
SECTION
2
TABLES
0
TABLE
2
VPORT
5
8
100
AcDbSymbolTable
0
ENDTAB
0
TABLE
2
LTYPE
5
5
100
AcDbSymbolTable
0
LTYPE
5
14
100
AcDbSymbolTableRecord
100
AcDbLinetypeTableRecord
2
BYBLOCK
70
0
0
LTYPE
5
15
100
AcDbSymbolTableRecord
100
AcDbLinetypeTableRecord
2
BYLAYER
70
0
0
ENDTAB
0
TABLE
2
LAYER
5
2
100
AcDbSymbolTable
70
2
0
LAYER
5
50
100
AcDbSymbolTableRecord
100
AcDbLayerTableRecord
2
0
70
0
6
CONTINUOUS
0
ENDTAB
0
TABLE
2
STYLE
5
3
100
AcDbSymbolTable
70
1
0
STYLE
5
11
100
AcDbSymbolTableRecord
100
AcDbTextStyleTableRecord
2
STANDARD
70
0
0
ENDTAB
0
TABLE
2
VIEW
5
6
100
AcDbSymbolTable
70
0
0
ENDTAB
0
TABLE
2
UCS
5
7
100
AcDbSymbolTable
70
0
0
ENDTAB
0
TABLE
2
APPID
5
9
100
AcDbSymbolTable
70
2
0
APPID
5
12
100
AcDbSymbolTableRecord
100
AcDbRegAppTableRecord
2
ACAD
70
0
0
ENDTAB
0
TABLE
2
DIMSTYLE
5
A
100
AcDbSymbolTable
70
1
0
ENDTAB
0
TABLE
2
BLOCK_RECORD
5
1
100
AcDbSymbolTable
70
1
0
BLOCK_RECORD
5
1F
100
AcDbSymbolTableRecord
100
AcDbBlockTableRecord
2
*MODEL_SPACE
0
BLOCK_RECORD
5
1B
100
AcDbSymbolTableRecord
100
AcDbBlockTableRecord
2
*PAPER_SPACE
0
ENDTAB
0
ENDSEC
0
SECTION
2
BLOCKS
0
BLOCK
5
20
100
AcDbEntity
100
AcDbBlockBegin
2
*MODEL_SPACE
0
ENDBLK
5
21
100
AcDbEntity
100
AcDbBlockEnd
0
BLOCK
5
1C
100
AcDbEntity
100
AcDbBlockBegin
2
*PAPER_SPACE
0
ENDBLK
5
1D
100
AcDbEntity
100
AcDbBlockEnd
0
ENDSEC
0
SECTION
2
ENTITIES
0
LWPOLYLINE
5
100
100
AcDbEntity
8
0
100
AcDbPolyline
90
6
70
1
43
0.0
10
380.87359383131127
20
-144.9141725108131
10
360.87359383131127
20
-144.91417251081305
10
360.87359383131127
20
-164.9141725108131
10
-300.87359383131144
20
-164.9141725108131
10
-300.87359383131144
20
-184.91417251081302
10
380.87359383131127
20
-184.9141725108131
0
LINE
5
101
100
AcDbEntity
8
0
100
AcDbLine
10
380.87359383131127
20
-134.9141725108131
30
0
11
360.87359383131127
21
-134.91417251081307
31
0
0
LWPOLYLINE
5
102
100
AcDbEntity
8
0
100
AcDbPolyline
90
6
70
1
43
0.0
10
-380.87359383131121
20
134.91417251081307
10
-360.87359383131127
20
134.91417251081316
10
-360.87359383131127
20
-164.9141725108131
10
-310.87359383131144
20
-164.91417249724319
10
-310.87359383131144
20
-184.91417251081319
10
-380.87359383131138
20
-184.91417251081305
0
LWPOLYLINE
5
103
100
AcDbEntity
8
0
100
AcDbPolyline
90
6
70
1
43
0.0
10
-380.87359383131127
20
144.9141725108131
10
-360.87359383131127
20
144.91417251081441
10
-360.87359383131127
20
164.9141725108131
10
320.87359383131127
20
164.91417251081305
10
320.87359383131127
20
184.91417251081768
10
-380.87359383131127
20
184.9141725108131
0
LINE
5
104
100
AcDbEntity
8
0
100
AcDbLine
10
380.87359383131127
20
-184.9141725108131
30
0
11
380.87359383131127
21
-144.9141725108131
31
0
0
LINE
5
105
100
AcDbEntity
8
0
100
AcDbLine
10
360.87359383131127
20
-134.91417251081307
30
0
11
360.87359383131127
21
164.9141725108131
31
0
0
LINE
5
106
100
AcDbEntity
8
0
100
AcDbLine
10
380.87359383131127
20
-134.9141725108131
30
0
11
380.87359383131127
21
184.91417251081305
31
0
0
LINE
5
107
100
AcDbEntity
8
0
100
AcDbLine
10
-380.87359383131127
20
144.9141725108131
30
0
11
-380.87359383131127
21
184.9141725108131
31
0
0
LINE
5
108
100
AcDbEntity
8
0
100
AcDbLine
10
-380.87359383131138
20
-184.91417251081305
30
0
11
-380.87359383131121
21
134.91417251081307
31
0
0
LINE
5
109
100
AcDbEntity
8
0
100
AcDbLine
10
-360.87359383131127
20
-164.9141725108131
30
0
11
-360.87359383131127
21
134.91417251081313
31
0
0
LINE
5
110
100
AcDbEntity
8
0
100
AcDbLine
10
360.87359383131127
20
-164.9141725108131
30
0
11
360.87359383131127
21
-144.91417251081305
31
0
0
LINE
5
111
100
AcDbEntity
8
0
100
AcDbLine
10
360.87359383131127
20
-134.91417251081307
30
0
11
360.87359383131127
21
164.9141725108131
31
0
0
LINE
5
112
100
AcDbEntity
8
0
100
AcDbLine
10
380.87359383131127
20
-134.9141725108131
30
0
11
380.87359383131127
21
184.91417251081305
31
0
0
LINE
5
113
100
AcDbEntity
8
0
100
AcDbLine
10
330.87359383131127
20
164.9141725108131
30
0
11
330.87359383131127
21
184.9141725108131
31
0
0
LINE
5
114
100
AcDbEntity
8
0
100
AcDbLine
10
360.87359383131127
20
164.9141725108131
30
0
11
330.87359383131127
21
164.9141725108131
31
0
0
LINE
5
115
100
AcDbEntity
8
0
100
AcDbLine
10
380.87359383131127
20
184.9141725108131
30
0
11
330.87359383131127
21
184.9141725108131
31
0
0
ENDSEC
0
SECTION
2
OBJECTS
0
DICTIONARY
5
C
100
AcDbDictionary
3
ACAD_GROUP
350
D
3
ACAD_MLINESTYLE
350
17
0
DICTIONARY
5
D
100
AcDbDictionary
0
DICTIONARY
5
1A
330
C
100
AcDbDictionary
0
DICTIONARY
5
17
100
AcDbDictionary
0
ENDSEC
0
EOF
