0
SECTION
2
HEADER
9
$INSUNITS
70
4
9
$ACADVER
1
AC1014
9
$HANDSEED
5
FFFF
0
ENDSEC
0
SECTION
2
TABLES
0
TABLE
2
VPORT
5
8
100
AcDbSymbolTable
0
ENDTAB
0
TABLE
2
LTYPE
5
5
100
AcDbSymbolTable
0
LTYPE
5
14
100
AcDbSymbolTableRecord
100
AcDbLinetypeTableRecord
2
BYBLOCK
70
0
0
LTYPE
5
15
100
AcDbSymbolTableRecord
100
AcDbLinetypeTableRecord
2
BYLAYER
70
0
0
ENDTAB
0
TABLE
2
LAYER
5
2
100
AcDbSymbolTable
70
2
0
LAYER
5
50
100
AcDbSymbolTableRecord
100
AcDbLayerTableRecord
2
0
70
0
6
CONTINUOUS
0
ENDTAB
0
TABLE
2
STYLE
5
3
100
AcDbSymbolTable
70
1
0
STYLE
5
11
100
AcDbSymbolTableRecord
100
AcDbTextStyleTableRecord
2
STANDARD
70
0
0
ENDTAB
0
TABLE
2
VIEW
5
6
100
AcDbSymbolTable
70
0
0
ENDTAB
0
TABLE
2
UCS
5
7
100
AcDbSymbolTable
70
0
0
ENDTAB
0
TABLE
2
APPID
5
9
100
AcDbSymbolTable
70
2
0
APPID
5
12
100
AcDbSymbolTableRecord
100
AcDbRegAppTableRecord
2
ACAD
70
0
0
ENDTAB
0
TABLE
2
DIMSTYLE
5
A
100
AcDbSymbolTable
70
1
0
ENDTAB
0
TABLE
2
BLOCK_RECORD
5
1
100
AcDbSymbolTable
70
1
0
BLOCK_RECORD
5
1F
100
AcDbSymbolTableRecord
100
AcDbBlockTableRecord
2
*MODEL_SPACE
0
BLOCK_RECORD
5
1B
100
AcDbSymbolTableRecord
100
AcDbBlockTableRecord
2
*PAPER_SPACE
0
ENDTAB
0
ENDSEC
0
SECTION
2
BLOCKS
0
BLOCK
5
20
100
AcDbEntity
100
AcDbBlockBegin
2
*MODEL_SPACE
0
ENDBLK
5
21
100
AcDbEntity
100
AcDbBlockEnd
0
BLOCK
5
1C
100
AcDbEntity
100
AcDbBlockBegin
2
*PAPER_SPACE
0
ENDBLK
5
1D
100
AcDbEntity
100
AcDbBlockEnd
0
ENDSEC
0
SECTION
2
ENTITIES
0
LWPOLYLINE
5
100
100
AcDbEntity
8
0
100
AcDbPolyline
90
17
70
1
43
0.0
10
-87.502796822834625
20
118.98386497620677
42
0.15810374182933029
10
-88.135112755318502
20
117.0865311494923
42
0.15681576418882248
10
-87.502796822834711
20
114.95178932614918
42
0.25215220356128276
10
-85.842484963485916
20
114.08206539703677
10
-73.588372044823672
20
114.08206539703677
10
-73.588372044823728
20
66.962947549102296
42
0.25215220356128842
10
-72.718648115711346
20
65.302635689753259
42
0.14085295067064985
10
-70.426020323878561
20
64.749069726883079
42
0.13875452732221236
10
-68.212528530922228
20
65.302635689753714
42
0.27038511790912728
10
-67.263668602933464
20
66.962947549102267
10
-67.26366860293345
20
114.08206539703677
10
-55.167827682023606
20
114.08206539703644
42
0.27038511790912662
10
-53.507515822674762
20
115.03092532502536
42
0.15474855941465715
10
-52.875199890190842
20
117.08653114949232
42
0.15810374182932802
10
-53.507515822674762
20
118.98386497620686
42
0.25215220356128581
10
-55.167827682023578
20
119.85358890531927
10
-85.842484963485902
20
119.85358890531916
42
0.25215220356128798
0
LWPOLYLINE
5
101
100
AcDbEntity
8
0
100
AcDbPolyline
90
25
70
1
43
0.0
10
-46.471360449424566
20
117.56057508422381
10
-46.47136044942453
20
66.962947549102267
42
0.25215220356128182
10
-45.601636520312134
20
65.302635689753515
42
0.15454729816124263
10
-43.625166694721415
20
64.749069726883022
10
-16.745177066688104
20
64.749069726882681
42
0.28832856342007046
10
-15.164001206215632
20
65.539657657119349
42
0.16248455485518137
10
-14.610435243345353
20
67.51612748270999
42
0.15675532663509742
10
-15.164001206215755
20
69.571733307176743
42
0.25298764733456292
10
-16.745177066688086
20
70.44145723628931
10
-40.146657007534365
20
70.44145723628931
10
-40.146657007534344
20
89.652589529325653
10
-28.366974052866432
20
89.652589529325866
42
0.25940614111435401
10
-26.78579819239404
20
90.443177459562037
42
0.1558796951001952
10
-26.153482259909964
20
92.261375287400256
42
0.15810374182932985
10
-26.785798192393891
20
94.158709114114743
42
0.25940614111435295
10
-28.366974052866443
20
94.949297044351013
10
-40.146657007534365
20
94.949297044350999
10
-40.146657007534365
20
114.08167936777396
10
-16.745177066688125
20
114.08167936777394
42
0.25298764733456774
10
-15.164001206215652
20
114.95140329688647
42
0.15179679863867168
10
-14.610435243345288
20
117.0861451202295
42
0.16026053377658592
10
-15.164001206215815
20
118.98347894694382
42
0.27967357505830748
10
-16.745177066688104
20
119.85320287605646
10
-43.625166694721429
20
119.85320287605634
42
0.15261101015506212
10
-45.601636520312155
20
119.22088694357262
42
0.25215220356128321
0
ARC
5
102
100
AcDbEntity
8
0
100
AcDbCircle
10
10.420628072142861
20
67.357797518787791
30
0
40
1.3439995190996126
210
0
220
0
230
-1
100
AcDbArc
50
0.018927882429082235
51
28.086478201905852
0
LINE
5
103
100
AcDbEntity
8
0
100
AcDbLine
10
-11.606355520152327
20
67.990557446704329
30
0
11
3.8101091194550563
21
118.11375501783154
31
0
0
SPLINE
5
104
100
AcDbEntity
8
0
100
AcDbSpline
70
4
71
3
72
8
73
4
74
0
42
0.000000001
43
0.0000000001
44
0.0000000001
40
0
40
0
40
0
40
0
40
1
40
1
40
1
40
1
41
1
41
1
41
1
41
1
10
3.8101091194550207
20
118.11375501783154
30
0
10
4.2054030845731916
20
119.5366588805517
30
0
10
5.5495569776799414
20
120.32724681078797
30
0
10
7.6047767728839943
20
120.32724681078797
30
0
0
SPLINE
5
105
100
AcDbEntity
8
0
100
AcDbSpline
70
4
71
3
72
8
73
4
74
0
42
0.000000001
43
0.0000000001
44
0.0000000001
40
0
40
0
40
0
40
0
40
1
40
1
40
1
40
1
41
1
41
1
41
1
41
1
10
7.6047767728839943
20
120.32724681078797
30
0
10
9.6599965680881184
20
120.32724681078797
30
0
10
11.083286460071093
20
119.5366588805517
30
0
10
11.478580425189193
20
118.11375501783154
30
0
0
LINE
5
106
100
AcDbEntity
8
0
100
AcDbLine
10
11.478580425189191
20
118.11375501783154
30
0
11
26.974181063672731
21
67.753149450075739
31
0
0
ARC
5
107
100
AcDbEntity
8
0
100
AcDbCircle
10
-27.289303111247776
20
67.726639410803557
30
0
40
0.31623517680705321
210
0
220
-0
230
-1
100
AcDbArc
50
-41.734634631790776
51
4.8087567465697347
0
LINE
5
108
100
AcDbEntity
8
0
100
AcDbLine
10
27.053317062548899
20
67.516127482709976
30
0
11
27.053317062548956
21
67.279105515344213
31
0
0
ARC
5
109
100
AcDbEntity
8
0
100
AcDbCircle
10
-24.772937381351028
20
67.516518787325097
30
0
40
2.2927050730813665
210
0
220
-0
230
-1
100
AcDbArc
50
185.94372428664349
51
243.71309485500174
0
ARC
5
110
100
AcDbEntity
8
0
100
AcDbCircle
10
-23.13650711140113
20
70.046271518619378
30
0
40
5.2969389817905359
210
0
220
-0
230
-1
100
AcDbArc
50
239.95849202734274
51
270.39080974613967
0
ARC
5
111
100
AcDbEntity
8
0
100
AcDbCircle
10
-22.847619501040555
20
66.789384929120232
30
0
40
2.055528543218252
210
0
220
-0
230
-1
100
AcDbArc
50
262.93675217042272
51
342.53168024935354
0
LINE
5
112
100
AcDbEntity
8
0
100
AcDbLine
10
20.886885618411242
20
66.172359618866039
30
0
11
17.566261899713624
21
77.319726641050025
31
0
0
LINE
5
113
100
AcDbEntity
8
0
100
AcDbLine
10
17.566261899713624
20
77.319726641050025
30
0
11
-2.4354583235589766
21
77.319726641050025
31
0
0
LINE
5
114
100
AcDbEntity
8
0
100
AcDbLine
10
-2.4354583235589766
20
77.319726641050025
30
0
11
-5.6769460433802763
21
66.172359618865997
31
0
0
ARC
5
115
100
AcDbEntity
8
0
100
AcDbCircle
10
7.695558371735487
20
66.866382562777829
30
0
40
2.1345874493362165
210
0
220
-0
230
-1
100
AcDbArc
50
198.97357966234009
51
277.37536965355292
0
ARC
5
116
100
AcDbEntity
8
0
100
AcDbCircle
10
7.9480021993765604
20
69.967291429648157
30
0
40
5.2178802641638207
210
0
220
-0
230
-1
100
AcDbArc
50
270.2368715165548
51
300.27193110975094
0
ARC
5
117
100
AcDbEntity
8
0
100
AcDbCircle
10
9.5519051691145762
20
67.422188051861866
30
0
40
2.2136461669635712
210
0
220
-0
230
-1
100
AcDbArc
50
297.62573204175749
51
358.34464218352548
0
LWPOLYLINE
5
118
100
AcDbEntity
8
0
100
AcDbPolyline
90
3
70
1
43
0.0
10
15.984700009978255
20
82.616434156075371
10
-0.85466849234926201
20
82.616434156075371
10
7.6043907436212148
20
110.99846364570504
0
LINE
5
119
100
AcDbEntity
8
0
100
AcDbLine
10
33.773314469557292
20
66.962947549102267
30
0
11
33.773314469557292
21
116.76998715398754
31
0
0
SPLINE
5
120
100
AcDbEntity
8
0
100
AcDbSpline
70
4
71
3
72
8
73
4
74
0
42
0.000000001
43
0.0000000001
44
0.0000000001
40
0
40
0
40
0
40
0
40
1
40
1
40
1
40
1
41
1
41
1
41
1
41
1
10
33.773314469557292
20
116.76998715398754
30
0
10
33.773314469557292
20
118.82559297845444
30
0
10
34.800924367159283
20
119.85320287605646
30
0
10
36.935666190502374
20
119.85320287605646
30
0
0
SPLINE
5
121
100
AcDbEntity
8
0
100
AcDbSpline
70
4
71
3
72
8
73
4
74
0
42
0.000000001
43
0.0000000001
44
0.0000000001
40
0
40
0
40
0
40
0
40
1
40
1
40
1
40
1
41
1
41
1
41
1
41
1
10
36.935666190502374
20
119.85320287605646
30
0
10
39.070408013845395
20
119.85320287605646
30
0
10
40.651583874317936
20
118.50904898294968
30
0
10
41.995351738161943
20
115.82112722599889
30
0
0
LINE
5
122
100
AcDbEntity
8
0
100
AcDbLine
10
41.995351738161943
20
115.82112722599891
30
0
11
53.854170691706059
21
93.131099216512695
31
0
0
LINE
5
123
100
AcDbEntity
8
0
100
AcDbLine
10
53.854170691706059
20
93.131099216512695
30
0
11
65.71298964525019
21
115.82112722599889
31
0
0
SPLINE
5
124
100
AcDbEntity
8
0
100
AcDbSpline
70
4
71
3
72
8
73
4
74
0
42
0.000000001
43
0.0000000001
44
0.0000000001
40
0
40
0
40
0
40
0
40
1
40
1
40
1
40
1
41
1
41
1
41
1
41
1
10
65.712989645250204
20
115.82112722599889
30
0
10
67.21502950684652
20
118.50904898294968
30
0
10
68.875341366195286
20
119.85320287605646
30
0
10
70.772675192909773
20
119.85320287605646
30
0
0
SPLINE
5
125
100
AcDbEntity
8
0
100
AcDbSpline
70
4
71
3
72
8
73
4
74
0
42
0.000000001
43
0.0000000001
44
0.0000000001
40
0
40
0
40
0
40
0
40
1
40
1
40
1
40
1
41
1
41
1
41
1
41
1
10
70.772675192909773
20
119.85320287605646
30
0
10
72.67000901962426
20
119.85320287605646
30
0
10
73.935026913854855
20
118.82559297845444
30
0
10
73.935026913854855
20
116.76998715398754
30
0
0
LINE
5
126
100
AcDbEntity
8
0
100
AcDbLine
10
73.935026913854855
20
116.76998715398754
30
0
11
73.935026913854855
21
66.962947549102267
31
0
0
ARC
5
127
100
AcDbEntity
8
0
100
AcDbCircle
10
-72.037691719440602
20
66.945974845741162
30
0
40
1.8974111079632578
210
0
220
0
230
-1
100
AcDbArc
50
179.48747151592173
51
240.00802940687285
0
ARC
5
128
100
AcDbEntity
8
0
100
AcDbCircle
10
-70.772482178278366
20
69.408347486010783
30
0
40
4.6644688637903045
210
0
220
-0
230
-1
100
AcDbArc
50
241.66769711695486
51
298.33230288304509
0
ARC
5
129
100
AcDbEntity
8
0
100
AcDbCircle
10
-69.507272637116131
20
66.945974845741162
30
0
40
1.8974111079634919
210
0
220
-0
230
-1
100
AcDbArc
50
-60.008029406873042
51
0.51252848407826124
0
LINE
5
130
100
AcDbEntity
8
0
100
AcDbLine
10
67.609937442701636
20
66.962947549102282
30
0
11
67.609937442701877
21
106.57148005979217
31
0
0
LINE
5
131
100
AcDbEntity
8
0
100
AcDbLine
10
67.609937442701877
20
106.57148005979217
30
0
11
56.225548453152086
21
85.146469944536562
31
0
0
ARC
5
132
100
AcDbEntity
8
0
100
AcDbCircle
10
-53.710184552462579
20
86.094248017963366
30
0
40
2.6879990381993402
210
0
220
-0
230
-1
100
AcDbArc
50
200.64618882318115
51
268.62578982075217
0
SPLINE
5
133
100
AcDbEntity
8
0
100
AcDbSpline
70
4
71
3
72
8
73
4
74
0
42
0.000000001
43
0.0000000001
44
0.0000000001
40
0
40
0
40
0
40
0
40
1
40
1
40
1
40
1
41
1
41
1
41
1
41
1
10
53.774648663567035
20
83.407022086311642
30
0
10
52.825788735578385
20
83.407022086311642
30
0
10
52.035200805342114
20
83.960588049182149
30
0
10
51.402884872858223
20
85.146469944536577
30
0
0
LINE
5
134
100
AcDbEntity
8
0
100
AcDbLine
10
51.402884872858223
20
85.146469944536562
30
0
11
40.097631882184629
21
106.88763802603411
31
0
0
LINE
5
135
100
AcDbEntity
8
0
100
AcDbLine
10
40.097631882184629
20
106.88763802603411
30
0
11
40.097631882184643
21
66.962947549102267
31
0
0
ARC
5
136
100
AcDbEntity
8
0
100
AcDbCircle
10
-38.20029668777039
20
66.945974845741162
30
0
40
1.8974111079632578
210
0
220
0
230
-1
100
AcDbArc
50
179.48747151592173
51
240.00802940687285
0
ARC
5
137
100
AcDbEntity
8
0
100
AcDbCircle
10
-36.935087146608154
20
69.497948966294715
30
0
40
4.7435275814172257
210
0
220
-0
230
-1
100
AcDbArc
50
242.1813335129076
51
297.81866648709234
0
ARC
5
138
100
AcDbEntity
8
0
100
AcDbCircle
10
-35.670645644567927
20
66.945531322317251
30
0
40
1.8974111079636644
210
0
220
-0
230
-1
100
AcDbArc
50
-59.981247754181069
51
0.52592203055467512
0
ARC
5
139
100
AcDbEntity
8
0
100
AcDbCircle
10
311.40238189917625
20
-93.969341357362239
30
0
40
4.1110570864357951
210
0
220
0
230
-1
100
AcDbArc
50
2.8710668572378593
51
44.742035695709049
0
SPLINE
5
140
100
AcDbEntity
8
0
100
AcDbSpline
70
0
71
2
72
6
73
3
74
0
42
0.000000001
43
0.0000000001
44
0.0000000001
40
0
40
0
40
0
40
1
40
1
40
1
10
-314.32239680176917
20
-91.075502499276382
30
0
10
-313.13651490641473
20
-89.652598636556206
30
0
10
-312.18765497842611
20
-89.652598636556206
30
0
0
SPLINE
5
141
100
AcDbEntity
8
0
100
AcDbSpline
70
4
71
3
72
8
73
4
74
0
42
0.000000001
43
0.0000000001
44
0.0000000001
40
0
40
0
40
0
40
0
40
1
40
1
40
1
40
1
41
1
41
1
41
1
41
1
10
-312.18765497842611
20
-89.652598636556206
30
0
10
-311.47620304706601
20
-89.652598636556206
30
0
10
-310.44820712020118
20
-90.601458564544856
30
0
10
-309.02530325748097
20
-92.340520393506978
30
0
0
SPLINE
5
142
100
AcDbEntity
8
0
100
AcDbSpline
70
4
71
3
72
8
73
4
74
0
42
0.000000001
43
0.0000000001
44
0.0000000001
40
0
40
0
40
0
40
0
40
1
40
1
40
1
40
1
41
1
41
1
41
1
41
1
10
-309.02530325748097
20
-92.340520393506978
30
0
10
-307.60239939476082
20
-94.079582222469114
30
0
10
-305.9420875354121
20
-95.977302078446414
30
0
10
-304.04475370869756
20
-98.111657872526649
30
0
0
SPLINE
5
143
100
AcDbEntity
8
0
100
AcDbSpline
70
4
71
3
72
8
73
4
74
0
42
0.000000001
43
0.0000000001
44
0.0000000001
40
0
40
0
40
0
40
0
40
1
40
1
40
1
40
1
41
1
41
1
41
1
41
1
10
-304.04475370869756
20
-98.111657872526649
30
0
10
-302.14741988198307
20
-100.2460136666069
30
0
10
-298.98506816103799
20
-102.06459752370804
30
0
10
-294.4785625469861
20
-103.88279535154635
30
0
0
ARC
5
144
100
AcDbEntity
8
0
100
AcDbCircle
10
279.61975463498834
20
-63.018025859647473
30
0
40
43.482336162994777
210
0
220
-0
230
-1
100
AcDbArc
50
268.8485148485226
51
289.98173410354616
0
SPLINE
5
145
100
AcDbEntity
8
0
100
AcDbSpline
70
4
71
3
72
8
73
4
74
0
42
0.000000001
43
0.0000000001
44
0.0000000001
40
0
40
0
40
0
40
0
40
1
40
1
40
1
40
1
41
1
41
1
41
1
41
1
10
-278.74593994113684
20
-106.49158110962091
30
0
10
-268.07300288294709
20
-106.49158110962091
30
0
10
-260.00885158283199
20
-103.80365935267015
30
0
10
-254.47473607117809
20
-98.348679839892412
30
0
0
SPLINE
5
146
100
AcDbEntity
8
0
100
AcDbSpline
70
4
71
3
72
8
73
4
74
0
42
0.000000001
43
0.0000000001
44
0.0000000001
40
0
40
0
40
0
40
0
40
1
40
1
40
1
40
1
41
1
41
1
41
1
41
1
10
-254.47473607117809
20
-98.348679839892412
30
0
10
-248.94062055952418
20
-92.893700327114672
30
0
10
-246.17356280369719
20
-85.145706993241504
30
0
10
-246.17356280369719
20
-74.868063900169943
30
0
0
SPLINE
5
147
100
AcDbEntity
8
0
100
AcDbSpline
70
0
71
2
72
6
73
3
74
0
42
0.000000001
43
0.0000000001
44
0.0000000001
40
0
40
0
40
0
40
1
40
1
40
1
10
-246.17356280369719
20
-74.868063900169943
30
0
10
-246.17356280369719
20
-64.66955680597458
30
0
10
-249.73120848976043
20
-57.791287401213864
30
0
0
ARC
5
148
100
AcDbEntity
8
0
100
AcDbCircle
10
273.90775980397615
20
-69.897221520000485
30
0
40
27.038107817251142
210
0
220
0
230
-1
100
AcDbArc
50
122.90779098986948
51
153.40147970841934
0
ARC
5
149
100
AcDbEntity
8
0
100
AcDbCircle
10
299.03054937157691
20
-113.84798402389727
30
0
40
77.635732336519325
210
0
220
0
230
-1
100
AcDbArc
50
110.29311767782322
51
120.85110340399298
0
LINE
5
150
100
AcDbEntity
8
0
100
AcDbLine
10
-272.10469250374183
20
-41.03105489776253
30
0
11
-286.01911728175287
21
-36.20839131746871
31
0
0
ARC
5
151
100
AcDbEntity
8
0
100
AcDbCircle
10
266.40857010509615
20
22.672956255282379
30
0
40
62.061152523547293
210
0
220
-0
230
-1
100
AcDbArc
50
288.42043733349254
51
301.57594716170468
0
ARC
5
152
100
AcDbEntity
8
0
100
AcDbCircle
10
285.0053547987257
20
-8.1217670797910912
30
0
40
26.089401697796749
210
0
220
-0
230
-1
100
AcDbArc
50
302.19420774772902
51
333.30286180069334
0
SPLINE
5
153
100
AcDbEntity
8
0
100
AcDbSpline
70
4
71
3
72
8
73
4
74
0
42
0.000000001
43
0.0000000001
44
0.0000000001
40
0
40
0
40
0
40
0
40
1
40
1
40
1
40
1
41
1
41
1
41
1
41
1
10
-308.31346529685811
20
-19.843066749872698
30
0
10
-310.76436508644309
20
-15.41569713469702
30
0
10
-311.95024698179748
20
-9.8815816230430897
30
0
10
-311.95024698179748
20
-3.3989922126633232
30
0
0
SPLINE
5
154
100
AcDbEntity
8
0
100
AcDbSpline
70
4
71
3
72
8
73
4
74
0
42
0.000000001
43
0.0000000001
44
0.0000000001
40
0
40
0
40
0
40
0
40
1
40
1
40
1
40
1
41
1
41
1
41
1
41
1
10
-311.95024698179748
20
-3.3989922126633232
30
0
10
-311.95024698179748
20
3.0835971977164434
30
0
10
-310.76436508644309
20
8.9342567048751143
30
0
10
-308.31346529685811
20
13.677784286292756
30
0
0
ARC
5
155
100
AcDbEntity
8
0
100
AcDbCircle
10
286.6175953762708
20
3.522867891971817
30
0
40
23.954813682988494
210
0
220
0
230
-1
100
AcDbArc
50
25.082300350238036
51
60.015503924596977
0
ARC
5
156
100
AcDbEntity
8
0
100
AcDbCircle
10
276.6924253281573
20
-13.934044453111767
30
0
40
44.03574831733097
210
0
220
0
230
-1
100
AcDbArc
50
60.181491948879383
51
77.245452019653683
0
ARC
5
157
100
AcDbEntity
8
0
100
AcDbCircle
10
273.81691862926857
20
-26.009223152011067
30
0
40
56.447979425211834
210
0
220
0
230
-1
100
AcDbArc
50
77.10471219116134
51
90.293277087865292
0
ARC
5
158
100
AcDbEntity
8
0
100
AcDbCircle
10
272.70540676665865
20
-34.54310250797004
30
0
40
64.986325452738853
210
0
220
0
230
-1
100
AcDbArc
50
89.27474941623214
51
108.40968905103915
0
SPLINE
5
159
100
AcDbEntity
8
0
100
AcDbSpline
70
4
71
3
72
8
73
4
74
0
42
0.000000001
43
0.0000000001
44
0.0000000001
40
0
40
0
40
0
40
0
40
1
40
1
40
1
40
1
41
1
41
1
41
1
41
1
10
-252.18210827934541
20
27.117393071046614
30
0
10
-245.85740483745525
20
24.903901278090164
30
0
10
-242.61591711763396
20
22.610887456994728
30
0
10
-242.61591711763396
20
20.239123666285899
30
0
0
ARC
5
160
100
AcDbEntity
8
0
100
AcDbCircle
10
247.42689768367612
20
20.573495622193274
30
0
40
4.8225862990445769
210
0
220
-0
230
-1
100
AcDbArc
50
183.97576812707766
51
221.26285818682851
0
ARC
5
161
100
AcDbEntity
8
0
100
AcDbCircle
10
246.49585486027854
20
19.195374008625841
30
0
40
3.2414104385719367
210
0
220
-0
230
-1
100
AcDbArc
50
213.78429639713357
51
264.29367627566279
0
SPLINE
5
162
100
AcDbEntity
8
0
100
AcDbSpline
70
4
71
3
72
8
73
4
74
0
42
0.000000001
43
0.0000000001
44
0.0000000001
40
0
40
0
40
0
40
0
40
1
40
1
40
1
40
1
41
1
41
1
41
1
41
1
10
-246.17356280369719
20
15.970026048862582
30
0
10
-246.64799276769151
20
15.970026048862582
30
0
10
-248.07089663041168
20
16.602341981346473
30
0
10
-250.28477445263093
20
17.788223876700897
30
0
0
ARC
5
163
100
AcDbEntity
8
0
100
AcDbCircle
10
271.58481739367039
20
-22.37159699712489
30
0
40
45.458805988585965
210
0
220
0
230
-1
100
AcDbArc
50
105.16515244045043
51
117.94067067523292
0
ARC
5
164
100
AcDbEntity
8
0
100
AcDbCircle
10
273.01321034389639
20
-24.187159437374852
30
0
40
47.593394003394678
210
0
220
0
230
-1
100
AcDbArc
50
89.189722235566762
51
106.25314019199315
0
ARC
5
165
100
AcDbEntity
8
0
100
AcDbCircle
10
274.11607596845909
20
-29.091804699754036
30
0
40
52.495039774029841
210
0
220
0
230
-1
100
AcDbArc
50
74.220610757466744
51
90.469134559634981
0
ARC
5
166
100
AcDbEntity
8
0
100
AcDbCircle
10
281.25406395069126
20
-0.94444756254304707
30
0
40
23.48046213118819
210
0
220
0
230
-1
100
AcDbArc
50
37.292835088681805
51
72.304184312134012
0
SPLINE
5
167
100
AcDbEntity
8
0
100
AcDbSpline
70
4
71
3
72
8
73
4
74
0
42
0.000000001
43
0.0000000001
44
0.0000000001
40
0
40
0
40
0
40
0
40
1
40
1
40
1
40
1
41
1
41
1
41
1
41
1
10
-299.93392808902667
20
13.282104291911807
30
0
10
-303.25455180772411
20
9.2500286418542466
30
0
10
-304.91447763781002
20
3.874185127952714
30
0
10
-304.91447763781002
20
-2.766676280179432
30
0
0
SPLINE
5
168
100
AcDbEntity
8
0
100
AcDbSpline
70
4
71
3
72
8
73
4
74
0
42
0.000000001
43
0.0000000001
44
0.0000000001
40
0
40
0
40
0
40
0
40
1
40
1
40
1
40
1
41
1
41
1
41
1
41
1
10
-304.91447763781002
20
-2.766676280179432
30
0
10
-304.91447763781002
20
-9.407537688311578
30
0
10
-303.72859574245564
20
-13.123455372127175
30
0
10
-301.27769595287066
20
-16.918123025556184
30
0
0
ARC
5
169
100
AcDbEntity
8
0
100
AcDbCircle
10
281.85444078521095
20
-5.3428857292754728
30
0
40
22.61081510634288
210
0
220
-0
230
-1
100
AcDbArc
50
296.29190275209845
51
329.20728419814753
0
ARC
5
170
100
AcDbEntity
8
0
100
AcDbCircle
10
245.21537730301728
20
69.057448975912848
30
0
40
105.54348868654247
210
0
220
-0
230
-1
100
AcDbArc
50
288.70464637350932
51
296.2340869885598
0
SPLINE
5
171
100
AcDbEntity
8
0
100
AcDbSpline
70
4
71
3
72
8
73
4
74
0
42
0.000000001
43
0.0000000001
44
0.0000000001
40
0
40
0
40
0
40
0
40
1
40
1
40
1
40
1
41
1
41
1
41
1
41
1
10
-279.06209790737876
20
-30.911683802443335
30
0
10
-274.39770632483726
20
-32.492859662915912
30
0
10
-269.81206471190922
20
-34.232307521140832
30
0
10
-265.06853713049162
20
-36.050505348979129
30
0
0
ARC
5
172
100
AcDbEntity
8
0
100
AcDbCircle
10
291.37931380728907
20
-100.19895904789269
30
0
40
69.334559069038335
210
0
220
0
230
-1
100
AcDbArc
50
112.30120682556499
51
124.42551003069315
0
SPLINE
5
173
100
AcDbEntity
8
0
100
AcDbSpline
70
4
71
3
72
8
73
4
74
0
42
0.000000001
43
0.0000000001
44
0.0000000001
40
0
40
0
40
0
40
0
40
1
40
1
40
1
40
1
41
1
41
1
41
1
41
1
10
-252.18210827934541
20
-43.007524723353221
30
0
10
-248.30830462704026
20
-45.774582479180168
30
0
10
-245.14595290609518
20
-49.727522130361557
30
0
10
-242.69505311651017
20
-55.024615674649731
30
0
0
SPLINE
5
174
100
AcDbEntity
8
0
100
AcDbSpline
70
4
71
3
72
8
73
4
74
0
42
0.000000001
43
0.0000000001
44
0.0000000001
40
0
40
0
40
0
40
0
40
1
40
1
40
1
40
1
41
1
41
1
41
1
41
1
10
-242.69505311651017
20
-55.024615674649731
30
0
10
-240.24415332692513
20
-60.321709218937869
30
0
10
-239.1374074304469
20
-66.725162630441446
30
0
10
-239.1374074304469
20
-74.235747967686052
30
0
0
SPLINE
5
175
100
AcDbEntity
8
0
100
AcDbSpline
70
0
71
2
72
6
73
3
74
0
42
0.000000001
43
0.0000000001
44
0.0000000001
40
0
40
0
40
0
40
1
40
1
40
1
10
-239.1374074304469
20
-74.235747967686052
30
0
10
-239.1374074304469
20
-94.15871822134531
30
0
10
-249.57332252127088
20
-103.88279535154635
30
0
0
SPLINE
5
176
100
AcDbEntity
8
0
100
AcDbSpline
70
4
71
3
72
8
73
4
74
0
42
0.000000001
43
0.0000000001
44
0.0000000001
40
0
40
0
40
0
40
0
40
1
40
1
40
1
40
1
41
1
41
1
41
1
41
1
10
-249.57332252127088
20
-103.88279535154635
30
0
10
-256.53034189564494
20
-110.28663479231273
30
0
10
-265.93864708886684
20
-113.528122512134
30
0
10
-277.79746604241097
20
-113.528122512134
30
0
0
ARC
5
177
100
AcDbEntity
8
0
100
AcDbCircle
10
278.29602502960523
20
-59.849516064026034
30
0
40
53.680921669384283
210
0
220
-0
230
-1
100
AcDbArc
50
269.46786054354294
51
287.103656036232
0
ARC
5
178
100
AcDbEntity
8
0
100
AcDbCircle
10
282.45010522714836
20
-70.080259881592724
30
0
40
42.691748232758528
210
0
220
-0
230
-1
100
AcDbArc
50
285.81315266972916
51
303.64091666040633
0
ARC
5
179
100
AcDbEntity
8
0
100
AcDbCircle
10
287.39334974054907
20
-78.572586555546422
30
0
40
32.888456691487939
210
0
220
-0
230
-1
100
AcDbArc
50
304.66752392523773
51
321.29237599840434
0
SPLINE
5
180
100
AcDbEntity
8
0
100
AcDbSpline
70
4
71
3
72
8
73
4
74
0
42
0.000000001
43
0.0000000001
44
0.0000000001
40
0
40
0
40
0
40
0
40
1
40
1
40
1
40
1
41
1
41
1
41
1
41
1
10
-313.05776493680133
20
-99.139267770128683
30
0
10
-314.63855476801109
20
-97.004911976048447
30
0
10
-315.50827869712356
20
-95.18632811894733
30
0
10
-315.50827869712356
20
-93.763424256227168
30
0
0
LINE
5
181
100
AcDbEntity
8
0
100
AcDbLine
10
-214.94572558862717
20
-73.287274068960215
30
0
11
-214.94572558862717
21
-9.8032176826925177
31
0
0
SPLINE
5
182
100
AcDbEntity
8
0
100
AcDbSpline
70
4
71
3
72
8
73
4
74
0
42
0.000000001
43
0.0000000001
44
0.0000000001
40
0
40
0
40
0
40
0
40
1
40
1
40
1
40
1
41
1
41
1
41
1
41
1
10
-214.94572558862717
20
-9.8032176826925266
30
0
10
-214.94572558862717
20
3.9529350975660904
30
0
10
-211.30894390368775
20
14.151442191761472
30
0
10
-204.03576656307172
20
20.634417631404034
30
0
0
SPLINE
5
183
100
AcDbEntity
8
0
100
AcDbSpline
70
4
71
3
72
8
73
4
74
0
42
0.000000001
43
0.0000000001
44
0.0000000001
40
0
40
0
40
0
40
0
40
1
40
1
40
1
40
1
41
1
41
1
41
1
41
1
10
-204.03576656307172
20
20.634417631404034
30
0
10
-196.76258922245566
20
27.117393071046614
30
0
10
-187.51255602698615
20
30.43763076048128
30
0
10
-176.04903103856017
20
30.43763076048128
30
0
0
SPLINE
5
184
100
AcDbEntity
8
0
100
AcDbSpline
70
4
71
3
72
8
73
4
74
0
42
0.000000001
43
0.0000000001
44
0.0000000001
40
0
40
0
40
0
40
0
40
1
40
1
40
1
40
1
41
1
41
1
41
1
41
1
10
-176.04903103856017
20
30.43763076048128
30
0
10
-164.58550605013417
20
30.43763076048128
30
0
10
-155.01931488842271
20
27.35441503841237
30
0
10
-148.45758947916676
20
21.345869562764133
30
0
0
SPLINE
5
185
100
AcDbEntity
8
0
100
AcDbSpline
70
4
71
3
72
8
73
4
74
0
42
0.000000001
43
0.0000000001
44
0.0000000001
40
0
40
0
40
0
40
0
40
1
40
1
40
1
40
1
41
1
41
1
41
1
41
1
10
-148.45758947916676
20
21.345869562764133
30
0
10
-141.8958640699108
20
15.337324087115878
30
0
10
-138.57524035121332
20
8.0641467464998406
30
0
10
-138.57524035121332
20
-0.23702652098103627
30
0
0
SPLINE
5
186
100
AcDbEntity
8
0
100
AcDbSpline
70
4
71
3
72
8
73
4
74
0
42
0.000000001
43
0.0000000001
44
0.0000000001
40
0
40
0
40
0
40
0
40
1
40
1
40
1
40
1
41
1
41
1
41
1
41
1
10
-138.57524035121332
20
-0.23702652098103627
30
0
10
-138.57524035121332
20
-3.8738082059204615
30
0
10
-139.76112224656774
20
-5.6920060337587586
30
0
10
-142.05375003840035
20
-5.6920060337587586
30
0
0
SPLINE
5
187
100
AcDbEntity
8
0
100
AcDbSpline
70
4
71
3
72
8
73
4
74
0
42
0.000000001
43
0.0000000001
44
0.0000000001
40
0
40
0
40
0
40
0
40
1
40
1
40
1
40
1
41
1
41
1
41
1
41
1
10
-142.05375003840035
20
-5.6920060337587586
30
0
10
-144.34637783023302
20
-5.6920060337587586
30
0
10
-145.61139572446362
20
-4.5852601372805424
30
0
10
-145.61139572446362
20
-2.2134963465717306
30
0
0
ARC
5
188
100
AcDbEntity
8
0
100
AcDbCircle
10
173.58209856272606
20
-3.1629894015219051
30
0
40
27.986813936705662
210
0
220
0
230
-1
100
AcDbArc
50
161.04161229593365
51
178.05578489940265
0
ARC
5
189
100
AcDbEntity
8
0
100
AcDbCircle
10
182.06717449187585
20
-8.013420357976635
30
0
40
37.63198427290493
210
0
220
0
230
-1
100
AcDbArc
50
144.21152788110808
51
158.25325608796993
0
SPLINE
5
190
100
AcDbEntity
8
0
100
AcDbSpline
70
4
71
3
72
8
73
4
74
0
42
0.000000001
43
0.0000000001
44
0.0000000001
40
0
40
0
40
0
40
0
40
1
40
1
40
1
40
1
41
1
41
1
41
1
41
1
10
-151.54080520123568
20
13.993556223271906
30
0
10
-153.59641102570254
20
16.839749977975043
30
0
10
-156.67962674777144
20
19.132377769807682
30
0
10
-160.94872436519478
20
20.871825628032603
30
0
0
ARC
5
191
100
AcDbEntity
8
0
100
AcDbCircle
10
175.27484259344331
20
-18.25169598166994
30
0
40
41.663984526622301
210
0
220
0
230
-1
100
AcDbArc
50
88.718116228475949
51
110.11154854118155
0
SPLINE
5
192
100
AcDbEntity
8
0
100
AcDbSpline
70
0
71
2
72
6
73
3
74
0
42
0.000000001
43
0.0000000001
44
0.0000000001
40
0
40
0
40
0
40
1
40
1
40
1
10
-176.20691700704975
20
23.401861416493812
30
0
10
-207.9095702153769
20
23.401861416493812
30
0
10
-207.9095702153769
20
-9.8028316534297133
30
0
0
LINE
5
193
100
AcDbEntity
8
0
100
AcDbLine
10
-207.9095702153769
20
-9.8028316534297151
30
0
11
-207.9095702153769
21
-73.286888039697416
31
0
0
SPLINE
5
194
100
AcDbEntity
8
0
100
AcDbSpline
70
0
71
2
72
6
73
3
74
0
42
0.000000001
43
0.0000000001
44
0.0000000001
40
0
40
0
40
0
40
1
40
1
40
1
10
-207.9095702153769
20
-73.286888039697402
30
0
10
-207.9095702153769
20
-106.49158110962091
30
0
10
-175.49546507568965
20
-106.49158110962091
30
0
0
ARC
5
195
100
AcDbEntity
8
0
100
AcDbCircle
10
174.6848911002877
20
-67.286799545679656
30
0
40
39.213160133377947
210
0
220
-0
230
-1
100
AcDbArc
50
252.06401956020508
51
271.18444358077096
0
ARC
5
196
100
AcDbEntity
8
0
100
AcDbCircle
10
170.09839023859377
20
-78.614084643124301
30
0
40
27.038107817251138
210
0
220
-0
230
-1
100
AcDbArc
50
234.2669131475071
51
253.91920852643727
0
ARC
5
197
100
AcDbEntity
8
0
100
AcDbCircle
10
165.87213801808605
20
-86.632378607684046
30
0
40
18.104463300825596
210
0
220
-0
230
-1
100
AcDbArc
50
204.56315668203712
51
230.30112475451665
0
ARC
5
198
100
AcDbEntity
8
0
100
AcDbCircle
10
175.33984769231648
20
-79.956048862316464
30
0
40
29.567989797177738
210
0
220
-0
230
-1
100
AcDbArc
50
195.13354715961097
51
208.70671577217348
0
SPLINE
5
199
100
AcDbEntity
8
0
100
AcDbSpline
70
4
71
3
72
8
73
4
74
0
42
0.000000001
43
0.0000000001
44
0.0000000001
40
0
40
0
40
0
40
0
40
1
40
1
40
1
40
1
41
1
41
1
41
1
41
1
10
-146.79727761981803
20
-87.67535675243991
30
0
10
-146.40198365469988
20
-86.015044893091186
30
0
10
-146.00668968958175
20
-83.801553100134711
30
0
10
-145.61139572446362
20
-80.876223346555378
30
0
0
SPLINE
5
200
100
AcDbEntity
8
0
100
AcDbSpline
70
4
71
3
72
8
73
4
74
0
42
0.000000001
43
0.0000000001
44
0.0000000001
40
0
40
0
40
0
40
0
40
1
40
1
40
1
40
1
41
1
41
1
41
1
41
1
10
-145.61139572446362
20
-80.876223346555378
30
0
10
-145.21610175934546
20
-77.950893592976058
30
0
10
-144.18849186174344
20
-77.39771365936835
30
0
10
-142.05375003840035
20
-77.39771365936835
30
0
0
SPLINE
5
201
100
AcDbEntity
8
0
100
AcDbSpline
70
4
71
3
72
8
73
4
74
0
42
0.000000001
43
0.0000000001
44
0.0000000001
40
0
40
0
40
0
40
0
40
1
40
1
40
1
40
1
41
1
41
1
41
1
41
1
10
-142.05375003840035
20
-77.39771365936835
30
0
10
-139.91900821505732
20
-77.39771365936835
30
0
10
-138.57524035121332
20
-79.295047486082836
30
0
10
-138.57524035121332
20
-83.090101168774623
30
0
0
SPLINE
5
202
100
AcDbEntity
8
0
100
AcDbSpline
70
4
71
3
72
8
73
4
74
0
42
0.000000001
43
0.0000000001
44
0.0000000001
40
0
40
0
40
0
40
0
40
1
40
1
40
1
40
1
41
1
41
1
41
1
41
1
10
-138.57524035121332
20
-83.090101168774623
30
0
10
-138.57524035121332
20
-91.154252468889752
30
0
10
-141.97461403952417
20
-98.190407842140033
30
0
10
-148.69461144653252
20
-104.35683928627785
30
0
0
SPLINE
5
203
100
AcDbEntity
8
0
100
AcDbSpline
70
4
71
3
72
8
73
4
74
0
42
0.000000001
43
0.0000000001
44
0.0000000001
40
0
40
0
40
0
40
0
40
1
40
1
40
1
40
1
41
1
41
1
41
1
41
1
10
-148.69461144653252
20
-104.35683928627785
30
0
10
-155.41460885354084
20
-110.52327073041567
30
0
10
-164.82252801749993
20
-113.52773648287119
30
0
10
-176.60221097216788
20
-113.52773648287119
30
0
0
SPLINE
5
204
100
AcDbEntity
8
0
100
AcDbSpline
70
4
71
3
72
8
73
4
74
0
42
0.000000001
43
0.0000000001
44
0.0000000001
40
0
40
0
40
0
40
0
40
1
40
1
40
1
40
1
41
1
41
1
41
1
41
1
10
-176.60221097216788
20
-113.52773648287119
30
0
10
-188.38189392683577
20
-113.52773648287119
30
0
10
-197.157497158311
20
-110.28624876304991
30
0
10
-204.27278853043745
20
-103.72452335379396
30
0
0
SPLINE
5
205
100
AcDbEntity
8
0
100
AcDbSpline
70
4
71
3
72
8
73
4
74
0
42
0.000000001
43
0.0000000001
44
0.0000000001
40
0
40
0
40
0
40
0
40
1
40
1
40
1
40
1
41
1
41
1
41
1
41
1
10
-204.27278853043745
20
-103.72452335379396
30
0
10
-211.38807990256396
20
-97.162797944537999
30
0
10
-214.94572558862717
20
-87.122562848095015
30
0
10
-214.94572558862717
20
-73.287274068960215
30
0
0
LINE
5
206
100
AcDbEntity
8
0
100
AcDbLine
10
-113.5921985206317
20
-108.86373092959253
30
0
11
-113.5921985206317
21
27.117393071046632
31
0
0
SPLINE
5
207
100
AcDbEntity
8
0
100
AcDbSpline
70
0
71
2
72
6
73
3
74
0
42
0.000000001
43
0.0000000001
44
0.0000000001
40
0
40
0
40
0
40
1
40
1
40
1
10
-113.5921985206317
20
27.117393071046614
30
0
10
-113.5921985206317
20
30.438016789744093
30
0
10
-110.03455283456844
20
30.438016789744093
30
0
0
SPLINE
5
208
100
AcDbEntity
8
0
100
AcDbSpline
70
4
71
3
72
8
73
4
74
0
42
0.000000001
43
0.0000000001
44
0.0000000001
40
0
40
0
40
0
40
0
40
1
40
1
40
1
40
1
41
1
41
1
41
1
41
1
10
-110.03455283456844
20
30.438016789744093
30
0
10
-107.74192504273583
20
30.438016789744093
30
0
10
-106.55604314738142
20
29.331270893265859
30
0
10
-106.55604314738142
20
27.117393071046614
30
0
0
LINE
5
209
100
AcDbEntity
8
0
100
AcDbLine
10
-106.55604314738143
20
27.117393071046614
30
0
11
-106.55604314738142
21
-34.785487454748534
31
0
0
LINE
5
210
100
AcDbEntity
8
0
100
AcDbLine
10
-106.55604314738142
20
-34.785487454748534
30
0
11
-44.257868656468133
21
-34.785487454748534
31
0
0
LINE
5
211
100
AcDbEntity
8
0
100
AcDbLine
10
-44.257868656468133
20
-34.785487454748534
30
0
11
-44.257868656468133
21
27.117393071046614
31
0
0
SPLINE
5
212
100
AcDbEntity
8
0
100
AcDbSpline
70
0
71
2
72
6
73
3
74
0
42
0.000000001
43
0.0000000001
44
0.0000000001
40
0
40
0
40
0
40
1
40
1
40
1
10
-44.257868656468133
20
27.117393071046614
30
0
10
-44.257868656468133
20
30.438016789744093
30
0
10
-40.70022297040488
20
30.438016789744093
30
0
0
SPLINE
5
213
100
AcDbEntity
8
0
100
AcDbSpline
70
4
71
3
72
8
73
4
74
0
42
0.000000001
43
0.0000000001
44
0.0000000001
40
0
40
0
40
0
40
0
40
1
40
1
40
1
40
1
41
1
41
1
41
1
41
1
10
-40.70022297040488
20
30.438016789744093
30
0
10
-38.407595178572258
20
30.438016789744093
30
0
10
-37.221713283217852
20
29.331270893265859
30
0
10
-37.221713283217852
20
27.117393071046614
30
0
0
LINE
5
214
100
AcDbEntity
8
0
100
AcDbLine
10
-37.221713283217852
20
27.117393071046614
30
0
11
-37.221713283217852
21
-108.86373092959255
31
0
0
SPLINE
5
215
100
AcDbEntity
8
0
100
AcDbSpline
70
4
71
3
72
8
73
4
74
0
42
0.000000001
43
0.0000000001
44
0.0000000001
40
0
40
0
40
0
40
0
40
1
40
1
40
1
40
1
41
1
41
1
41
1
41
1
10
-37.221713283217852
20
-108.86373092959253
30
0
10
-37.221713283217852
20
-111.15635872142519
30
0
10
-38.407595178572258
20
-112.34224061677961
30
0
10
-40.70022297040488
20
-112.34224061677961
30
0
0
SPLINE
5
216
100
AcDbEntity
8
0
100
AcDbSpline
70
4
71
3
72
8
73
4
74
0
42
0.000000001
43
0.0000000001
44
0.0000000001
40
0
40
0
40
0
40
0
40
1
40
1
40
1
40
1
41
1
41
1
41
1
41
1
10
-40.70022297040488
20
-112.34224061677961
30
0
10
-42.992850762237538
20
-112.34224061677961
30
0
10
-44.257868656468133
20
-111.15635872142519
30
0
10
-44.257868656468133
20
-108.86373092959253
30
0
0
LINE
5
217
100
AcDbEntity
8
0
100
AcDbLine
10
-44.257868656468133
20
-108.86373092959253
30
0
11
-44.257868656468133
21
-41.8220288572616
31
0
0
LINE
5
218
100
AcDbEntity
8
0
100
AcDbLine
10
-44.257868656468133
20
-41.8220288572616
30
0
11
-106.55604314738142
21
-41.822028857261628
31
0
0
LINE
5
219
100
AcDbEntity
8
0
100
AcDbLine
10
-106.55604314738142
20
-41.822028857261628
30
0
11
-106.55604314738142
21
-108.86373092959258
31
0
0
SPLINE
5
220
100
AcDbEntity
8
0
100
AcDbSpline
70
4
71
3
72
8
73
4
74
0
42
0.000000001
43
0.0000000001
44
0.0000000001
40
0
40
0
40
0
40
0
40
1
40
1
40
1
40
1
41
1
41
1
41
1
41
1
10
-106.55604314738142
20
-108.86373092959253
30
0
10
-106.55604314738142
20
-111.15635872142519
30
0
10
-107.74192504273583
20
-112.34224061677961
30
0
10
-110.03455283456844
20
-112.34224061677961
30
0
0
SPLINE
5
221
100
AcDbEntity
8
0
100
AcDbSpline
70
4
71
3
72
8
73
4
74
0
42
0.000000001
43
0.0000000001
44
0.0000000001
40
0
40
0
40
0
40
0
40
1
40
1
40
1
40
1
41
1
41
1
41
1
41
1
10
-110.03455283456844
20
-112.34224061677961
30
0
10
-112.3271806264011
20
-112.34224061677961
30
0
10
-113.5921985206317
20
-111.15635872142519
30
0
10
-113.5921985206317
20
-108.86373092959253
30
0
0
LINE
5
222
100
AcDbEntity
8
0
100
AcDbLine
10
-4.8072221142678018
20
-108.86373092959253
30
0
11
-4.8072221142678018
21
26.880371103680876
31
0
0
SPLINE
5
223
100
AcDbEntity
8
0
100
AcDbSpline
70
0
71
2
72
6
73
3
74
0
42
0.000000001
43
0.0000000001
44
0.0000000001
40
0
40
0
40
0
40
1
40
1
40
1
10
-4.8072221142678018
20
26.880371103680858
30
0
10
-4.8072221142678018
20
30.438016789744093
30
0
10
-1.2495764282045485
20
30.438016789744093
30
0
0
LINE
5
224
100
AcDbEntity
8
0
100
AcDbLine
10
-1.2495764282045483
20
30.438016789744093
30
0
11
68.243025433711395
21
30.438016789744093
31
0
0
SPLINE
5
225
100
AcDbEntity
8
0
100
AcDbSpline
70
0
71
2
72
6
73
3
74
0
42
0.000000001
43
0.0000000001
44
0.0000000001
40
0
40
0
40
0
40
1
40
1
40
1
10
68.243025433711395
20
30.438016789744093
30
0
10
71.563649152408857
20
30.438016789744093
30
0
10
71.563649152408857
20
27.117393071046614
30
0
0
SPLINE
5
226
100
AcDbEntity
8
0
100
AcDbSpline
70
4
71
3
72
8
73
4
74
0
42
0.000000001
43
0.0000000001
44
0.0000000001
40
0
40
0
40
0
40
0
40
1
40
1
40
1
40
1
41
1
41
1
41
1
41
1
10
71.563649152408857
20
27.117393071046614
30
0
10
71.563649152408857
20
24.587357282585405
30
0
10
70.456903255930641
20
23.401475387230999
30
0
10
68.243025433711395
20
23.401475387230999
30
0
0
LINE
5
227
100
AcDbEntity
8
0
100
AcDbLine
10
68.243025433711381
20
23.401475387230999
30
0
11
2.2289332589824973
21
23.401475387230999
31
0
0
LINE
5
228
100
AcDbEntity
8
0
100
AcDbLine
10
2.2289332589824973
20
23.401475387230999
30
0
11
2.2289332589824795
21
-37.394659242085922
31
0
0
LINE
5
229
100
AcDbEntity
8
0
100
AcDbLine
10
2.2289332589824795
20
-37.394659242085922
30
0
11
33.457156503315311
21
-37.394659242085915
31
0
0
SPLINE
5
230
100
AcDbEntity
8
0
100
AcDbSpline
70
4
71
3
72
8
73
4
74
0
42
0.000000001
43
0.0000000001
44
0.0000000001
40
0
40
0
40
0
40
0
40
1
40
1
40
1
40
1
41
1
41
1
41
1
41
1
10
33.457156503315346
20
-37.394659242085915
30
0
10
35.670648296271779
20
-37.394659242085915
30
0
10
36.777780222012808
20
-38.580541137440321
30
0
10
36.777780222012808
20
-41.031440927025358
30
0
0
SPLINE
5
231
100
AcDbEntity
8
0
100
AcDbSpline
70
4
71
3
72
8
73
4
74
0
42
0.000000001
43
0.0000000001
44
0.0000000001
40
0
40
0
40
0
40
0
40
1
40
1
40
1
40
1
41
1
41
1
41
1
41
1
10
36.777780222012808
20
-41.031440927025358
30
0
10
36.777780222012808
20
-43.482340716610359
30
0
10
35.671034325534592
20
-44.35206464572282
30
0
10
33.457156503315346
20
-44.35206464572282
30
0
0
LINE
5
232
100
AcDbEntity
8
0
100
AcDbLine
10
33.457156503315346
20
-44.35206464572282
30
0
11
2.228933258982515
21
-44.35206464572282
31
0
0
LINE
5
233
100
AcDbEntity
8
0
100
AcDbLine
10
2.228933258982515
20
-44.35206464572282
30
0
11
2.2289332589824795
21
-105.30647127279212
31
0
0
LINE
5
234
100
AcDbEntity
8
0
100
AcDbLine
10
2.2289332589824795
20
-105.30647127279212
30
0
11
68.243025433711381
21
-105.30647127279212
31
0
0
SPLINE
5
235
100
AcDbEntity
8
0
100
AcDbSpline
70
4
71
3
72
8
73
4
74
0
42
0.000000001
43
0.0000000001
44
0.0000000001
40
0
40
0
40
0
40
0
40
1
40
1
40
1
40
1
41
1
41
1
41
1
41
1
10
68.243025433711395
20
-105.30647127279212
30
0
10
70.456517226667827
20
-105.30647127279212
30
0
10
71.563649152408857
20
-106.57148916702272
30
0
10
71.563649152408857
20
-109.02238895660773
30
0
0
SPLINE
5
236
100
AcDbEntity
8
0
100
AcDbSpline
70
4
71
3
72
8
73
4
74
0
42
0.000000001
43
0.0000000001
44
0.0000000001
40
0
40
0
40
0
40
0
40
1
40
1
40
1
40
1
41
1
41
1
41
1
41
1
10
71.563649152408857
20
-109.02238895660773
30
0
10
71.563649152408857
20
-111.47328874619276
30
0
10
70.456903255930641
20
-112.34301267530523
30
0
10
68.243025433711395
20
-112.34301267530523
30
0
0
LINE
5
237
100
AcDbEntity
8
0
100
AcDbLine
10
68.243025433711381
20
-112.34301267530523
30
0
11
-1.2495764282045485
21
-112.34301267530523
31
0
0
SPLINE
5
238
100
AcDbEntity
8
0
100
AcDbSpline
70
4
71
3
72
8
73
4
74
0
42
0.000000001
43
0.0000000001
44
0.0000000001
40
0
40
0
40
0
40
0
40
1
40
1
40
1
40
1
41
1
41
1
41
1
41
1
10
-1.2495764282045485
20
-112.34301267530523
30
0
10
-3.6213402189133603
20
-112.34224061677961
30
0
10
-4.8072221142678018
20
-111.15635872142519
30
0
10
-4.8072221142678018
20
-108.86373092959253
30
0
0
LINE
5
239
100
AcDbEntity
8
0
100
AcDbLine
10
92.435093304793909
20
-108.86373092959253
30
0
11
92.435093304793909
21
27.117393071046632
31
0
0
SPLINE
5
240
100
AcDbEntity
8
0
100
AcDbSpline
70
0
71
2
72
6
73
3
74
0
42
0.000000001
43
0.0000000001
44
0.0000000001
40
0
40
0
40
0
40
1
40
1
40
1
10
92.435093304793909
20
27.117393071046614
30
0
10
92.435093304793909
20
30.438016789744093
30
0
10
95.992738990857163
20
30.438016789744093
30
0
0
SPLINE
5
241
100
AcDbEntity
8
0
100
AcDbSpline
70
4
71
3
72
8
73
4
74
0
42
0.000000001
43
0.0000000001
44
0.0000000001
40
0
40
0
40
0
40
0
40
1
40
1
40
1
40
1
41
1
41
1
41
1
41
1
10
95.992738990857163
20
30.438016789744093
30
0
10
98.28536678268982
20
30.438016789744093
30
0
10
99.471248678044191
20
29.331270893265859
30
0
10
99.471248678044191
20
27.117393071046614
30
0
0
LINE
5
242
100
AcDbEntity
8
0
100
AcDbLine
10
99.471248678044176
20
27.117393071046614
30
0
11
99.471248678044191
21
-108.86373092959255
31
0
0
SPLINE
5
243
100
AcDbEntity
8
0
100
AcDbSpline
70
4
71
3
72
8
73
4
74
0
42
0.000000001
43
0.0000000001
44
0.0000000001
40
0
40
0
40
0
40
0
40
1
40
1
40
1
40
1
41
1
41
1
41
1
41
1
10
99.471248678044191
20
-108.86373092959253
30
0
10
99.471248678044191
20
-111.15635872142519
30
0
10
98.28536678268982
20
-112.34224061677961
30
0
10
95.992738990857163
20
-112.34224061677961
30
0
0
SPLINE
5
244
100
AcDbEntity
8
0
100
AcDbSpline
70
4
71
3
72
8
73
4
74
0
42
0.000000001
43
0.0000000001
44
0.0000000001
40
0
40
0
40
0
40
0
40
1
40
1
40
1
40
1
41
1
41
1
41
1
41
1
10
95.992738990857163
20
-112.34224061677961
30
0
10
93.700111199024505
20
-112.34224061677961
30
0
10
92.435093304793909
20
-111.15635872142519
30
0
10
92.435093304793909
20
-108.86373092959253
30
0
0
LINE
5
245
100
AcDbEntity
8
0
100
AcDbLine
10
131.88535381773141
20
-108.86373092959253
30
0
11
131.88535381773141
21
27.117393071046632
31
0
0
SPLINE
5
246
100
AcDbEntity
8
0
100
AcDbSpline
70
0
71
2
72
6
73
3
74
0
42
0.000000001
43
0.0000000001
44
0.0000000001
40
0
40
0
40
0
40
1
40
1
40
1
10
131.88535381773141
20
27.117393071046614
30
0
10
131.88535381773141
20
29.963586825749768
30
0
10
135.44299950379468
20
30.438016789744093
30
0
0
LINE
5
247
100
AcDbEntity
8
0
100
AcDbLine
10
135.44299950379468
20
30.438016789744093
30
0
11
168.0153766412343
21
30.438016789744093
31
0
0
SPLINE
5
248
100
AcDbEntity
8
0
100
AcDbSpline
70
4
71
3
72
8
73
4
74
0
42
0.000000001
43
0.0000000001
44
0.0000000001
40
0
40
0
40
0
40
0
40
1
40
1
40
1
40
1
41
1
41
1
41
1
41
1
10
168.0153766412343
20
30.438016789744093
30
0
10
180.03246759253079
20
30.438016789744093
30
0
10
189.67740872385571
20
27.512687036164749
30
0
10
197.10885806222407
20
21.583277559392702
30
0
0
SPLINE
5
249
100
AcDbEntity
8
0
100
AcDbSpline
70
4
71
3
72
8
73
4
74
0
42
0.000000001
43
0.0000000001
44
0.0000000001
40
0
40
0
40
0
40
0
40
1
40
1
40
1
40
1
41
1
41
1
41
1
41
1
10
197.10885806222407
20
21.583277559392702
30
0
10
204.54030740059252
20
15.653868082620637
30
0
10
208.25622508440807
20
6.2459489186615436
30
0
10
208.25622508440807
20
-6.8778879291131645
30
0
0
SPLINE
5
250
100
AcDbEntity
8
0
100
AcDbSpline
70
0
71
2
72
6
73
3
74
0
42
0.000000001
43
0.0000000001
44
0.0000000001
40
0
40
0
40
0
40
1
40
1
40
1
10
208.25622508440807
20
-6.8778879291131645
30
0
10
208.25622508440807
20
-40.082580999036708
30
0
10
175.44682597960275
20
-44.035520650218061
30
0
0
LINE
5
251
100
AcDbEntity
8
0
100
AcDbLine
10
175.44682597960275
20
-44.035520650218061
30
0
11
207.62390915192424
21
-106.6502391366361
31
0
0
ARC
5
252
100
AcDbEntity
8
0
100
AcDbCircle
10
-203.28057432807171
20
-109.08803651378651
30
0
40
4.9807041112809989
210
0
220
0
230
-1
100
AcDbArc
50
150.69567075203088
51
177.41881646021983
0
ARC
5
253
100
AcDbEntity
8
0
100
AcDbCircle
10
-204.70025953621524
20
-108.97305543566915
30
0
40
3.5576456860630707
210
0
220
0
230
-1
100
AcDbArc
50
178.23905481612013
51
222.87686773217149
0
ARC
5
254
100
AcDbEntity
8
0
100
AcDbCircle
10
-204.85400766890564
20
-108.70924516696053
30
0
40
3.6367044036906653
210
0
220
-0
230
-1
100
AcDbArc
50
227.57612117754465
51
272.44949719896238
0
ARC
5
255
100
AcDbEntity
8
0
100
AcDbCircle
10
-204.83194652822391
20
-109.10396105046829
30
0
40
3.2414104385725335
210
0
220
-0
230
-1
100
AcDbArc
50
272.35808807977293
51
298.69334070723744
0
ARC
5
256
100
AcDbEntity
8
0
100
AcDbCircle
10
-205.08575934893798
20
-108.79309497450419
30
0
40
3.6367044036903891
210
0
220
-0
230
-1
100
AcDbArc
50
299.8496938990935
51
330.15030610090719
0
LINE
5
257
100
AcDbEntity
8
0
100
AcDbLine
10
201.93152164251788
20
-110.60317878781748
30
0
11
200.82477574603971
21
-109.02200292734494
31
0
0
LINE
5
258
100
AcDbEntity
8
0
100
AcDbLine
10
200.82477574603971
20
-109.02200292734494
30
0
11
200.03418781580342
21
-106.88726110400185
31
0
0
ARC
5
259
100
AcDbEntity
8
0
100
AcDbCircle
10
-195.50088098010229
20
-108.53239567148381
30
0
40
4.8225862990450654
210
0
220
0
230
-1
100
AcDbArc
50
138.01006573375955
51
160.05419318753624
0
LINE
5
260
100
AcDbEntity
8
0
100
AcDbLine
10
199.08532788781471
20
-105.30608524352931
30
0
11
167.85710464348196
21
-44.351678616460013
31
0
0
LINE
5
261
100
AcDbEntity
8
0
100
AcDbLine
10
167.85710464348196
20
-44.351678616460013
30
0
11
138.92150919098171
21
-44.351678616460006
31
0
0
LINE
5
262
100
AcDbEntity
8
0
100
AcDbLine
10
138.92150919098171
20
-44.351678616460006
30
0
11
138.92150919098171
21
-108.86373092959253
31
0
0
SPLINE
5
263
100
AcDbEntity
8
0
100
AcDbSpline
70
4
71
3
72
8
73
4
74
0
42
0.000000001
43
0.0000000001
44
0.0000000001
40
0
40
0
40
0
40
0
40
1
40
1
40
1
40
1
41
1
41
1
41
1
41
1
10
138.92150919098171
20
-108.86373092959253
30
0
10
138.92150919098171
20
-111.15635872142519
30
0
10
137.73562729562735
20
-112.34224061677961
30
0
10
135.44299950379468
20
-112.34224061677961
30
0
0
SPLINE
5
264
100
AcDbEntity
8
0
100
AcDbSpline
70
4
71
3
72
8
73
4
74
0
42
0.000000001
43
0.0000000001
44
0.0000000001
40
0
40
0
40
0
40
0
40
1
40
1
40
1
40
1
41
1
41
1
41
1
41
1
10
135.44299950379468
20
-112.34224061677961
30
0
10
133.15037171196201
20
-112.34224061677961
30
0
10
131.88535381773141
20
-111.15635872142519
30
0
10
131.88535381773141
20
-108.86373092959253
30
0
0
LINE
5
265
100
AcDbEntity
8
0
100
AcDbLine
10
138.92150919098171
20
-37.394659242085915
30
0
11
168.01499061197148
21
-37.394659242085915
31
0
0
SPLINE
5
266
100
AcDbEntity
8
0
100
AcDbSpline
70
4
71
3
72
8
73
4
74
0
42
0.000000001
43
0.0000000001
44
0.0000000001
40
0
40
0
40
0
40
0
40
1
40
1
40
1
40
1
41
1
41
1
41
1
41
1
10
168.01499061197148
20
-37.394659242085915
30
0
10
178.29263370504307
20
-37.394659242085915
30
0
10
186.43553497477157
20
-34.864623453624723
30
0
10
192.36494445154364
20
-29.963209903717498
30
0
0
SPLINE
5
267
100
AcDbEntity
8
0
100
AcDbSpline
70
4
71
3
72
8
73
4
74
0
42
0.000000001
43
0.0000000001
44
0.0000000001
40
0
40
0
40
0
40
0
40
1
40
1
40
1
40
1
41
1
41
1
41
1
41
1
10
192.36494445154364
20
-29.963209903717498
30
0
10
198.2943539283157
20
-25.061796353810308
30
0
10
201.21968368189499
20
-17.313803019937133
30
0
10
201.21968368189499
20
-6.8778879291131645
30
0
0
SPLINE
5
268
100
AcDbEntity
8
0
100
AcDbSpline
70
4
71
3
72
8
73
4
74
0
42
0.000000001
43
0.0000000001
44
0.0000000001
40
0
40
0
40
0
40
0
40
1
40
1
40
1
40
1
41
1
41
1
41
1
41
1
10
201.21968368189499
20
-6.8778879291131645
30
0
10
201.21968368189499
20
3.5580271617107684
30
0
10
198.21560395870227
20
11.147362468568751
30
0
10
192.36494445154364
20
16.049162047738772
30
0
0
SPLINE
5
269
100
AcDbEntity
8
0
100
AcDbSpline
70
4
71
3
72
8
73
4
74
0
42
0.000000001
43
0.0000000001
44
0.0000000001
40
0
40
0
40
0
40
0
40
1
40
1
40
1
40
1
41
1
41
1
41
1
41
1
10
192.36494445154364
20
16.049162047738772
30
0
10
186.51428494438491
20
20.950961626908793
30
0
10
178.29263370504307
20
23.401475387230999
30
0
10
168.01499061197148
20
23.401475387230999
30
0
0
LINE
5
270
100
AcDbEntity
8
0
100
AcDbLine
10
168.01499061197148
20
23.401475387231002
30
0
11
138.92150919098171
21
23.401475387230999
31
0
0
LINE
5
271
100
AcDbEntity
8
0
100
AcDbLine
10
138.92150919098171
20
23.401475387230999
30
0
11
138.92150919098171
21
-37.394659242085915
31
0
0
LINE
5
272
100
AcDbEntity
8
0
100
AcDbLine
10
231.26241106013623
20
-108.86373092959253
30
0
11
231.26241106013623
21
26.880371103680876
31
0
0
SPLINE
5
273
100
AcDbEntity
8
0
100
AcDbSpline
70
0
71
2
72
6
73
3
74
0
42
0.000000001
43
0.0000000001
44
0.0000000001
40
0
40
0
40
0
40
1
40
1
40
1
10
231.26241106013623
20
26.880371103680858
30
0
10
231.26241106013623
20
30.438016789744093
30
0
10
234.8200567461995
20
30.438016789744093
30
0
0
LINE
5
274
100
AcDbEntity
8
0
100
AcDbLine
10
234.8200567461995
20
30.438016789744093
30
0
11
304.31265860811544
21
30.438016789744093
31
0
0
SPLINE
5
275
100
AcDbEntity
8
0
100
AcDbSpline
70
0
71
2
72
6
73
3
74
0
42
0.000000001
43
0.0000000001
44
0.0000000001
40
0
40
0
40
0
40
1
40
1
40
1
10
304.31265860811544
20
30.438016789744093
30
0
10
307.63328232681295
20
30.438016789744093
30
0
10
307.63328232681295
20
27.117393071046614
30
0
0
SPLINE
5
276
100
AcDbEntity
8
0
100
AcDbSpline
70
4
71
3
72
8
73
4
74
0
42
0.000000001
43
0.0000000001
44
0.0000000001
40
0
40
0
40
0
40
0
40
1
40
1
40
1
40
1
41
1
41
1
41
1
41
1
10
307.63328232681295
20
27.117393071046614
30
0
10
307.63328232681295
20
24.587357282585405
30
0
10
306.52653643033466
20
23.401475387230999
30
0
10
304.31265860811544
20
23.401475387230999
30
0
0
LINE
5
277
100
AcDbEntity
8
0
100
AcDbLine
10
304.31265860811544
20
23.401475387230999
30
0
11
238.2985664333865
21
23.401475387230999
31
0
0
LINE
5
278
100
AcDbEntity
8
0
100
AcDbLine
10
238.2985664333865
20
23.401475387230999
30
0
11
238.2985664333865
21
-37.394659242085922
31
0
0
LINE
5
279
100
AcDbEntity
8
0
100
AcDbLine
10
238.2985664333865
20
-37.394659242085922
30
0
11
269.52678967771936
21
-37.394659242085915
31
0
0
SPLINE
5
280
100
AcDbEntity
8
0
100
AcDbSpline
70
4
71
3
72
8
73
4
74
0
42
0.000000001
43
0.0000000001
44
0.0000000001
40
0
40
0
40
0
40
0
40
1
40
1
40
1
40
1
41
1
41
1
41
1
41
1
10
269.52678967771936
20
-37.394659242085915
30
0
10
271.74028147067582
20
-37.394659242085915
30
0
10
272.84741339641687
20
-38.580541137440321
30
0
10
272.84741339641687
20
-41.031440927025358
30
0
0
SPLINE
5
281
100
AcDbEntity
8
0
100
AcDbSpline
70
4
71
3
72
8
73
4
74
0
42
0.000000001
43
0.0000000001
44
0.0000000001
40
0
40
0
40
0
40
0
40
1
40
1
40
1
40
1
41
1
41
1
41
1
41
1
10
272.84741339641687
20
-41.031440927025358
30
0
10
272.84741339641687
20
-43.482340716610359
30
0
10
271.74066749993864
20
-44.35206464572282
30
0
10
269.52678967771936
20
-44.35206464572282
30
0
0
LINE
5
282
100
AcDbEntity
8
0
100
AcDbLine
10
269.52678967771936
20
-44.35206464572282
30
0
11
238.29856643338655
21
-44.35206464572282
31
0
0
LINE
5
283
100
AcDbEntity
8
0
100
AcDbLine
10
238.29856643338655
20
-44.35206464572282
30
0
11
238.2985664333865
21
-105.30647127279212
31
0
0
LINE
5
284
100
AcDbEntity
8
0
100
AcDbLine
10
238.2985664333865
20
-105.30647127279212
30
0
11
304.31265860811544
21
-105.30647127279212
31
0
0
SPLINE
5
285
100
AcDbEntity
8
0
100
AcDbSpline
70
4
71
3
72
8
73
4
74
0
42
0.000000001
43
0.0000000001
44
0.0000000001
40
0
40
0
40
0
40
0
40
1
40
1
40
1
40
1
41
1
41
1
41
1
41
1
10
304.31265860811544
20
-105.30647127279212
30
0
10
306.52615040107185
20
-105.30647127279212
30
0
10
307.63328232681295
20
-106.57148916702272
30
0
10
307.63328232681295
20
-109.02238895660773
30
0
0
SPLINE
5
286
100
AcDbEntity
8
0
100
AcDbSpline
70
4
71
3
72
8
73
4
74
0
42
0.000000001
43
0.0000000001
44
0.0000000001
40
0
40
0
40
0
40
0
40
1
40
1
40
1
40
1
41
1
41
1
41
1
41
1
10
307.63328232681295
20
-109.02238895660773
30
0
10
307.63328232681295
20
-111.47328874619276
30
0
10
306.52653643033466
20
-112.34301267530523
30
0
10
304.31265860811544
20
-112.34301267530523
30
0
0
LINE
5
287
100
AcDbEntity
8
0
100
AcDbLine
10
304.31265860811544
20
-112.34301267530523
30
0
11
234.8200567461995
21
-112.34301267530523
31
0
0
SPLINE
5
288
100
AcDbEntity
8
0
100
AcDbSpline
70
4
71
3
72
8
73
4
74
0
42
0.000000001
43
0.0000000001
44
0.0000000001
40
0
40
0
40
0
40
0
40
1
40
1
40
1
40
1
41
1
41
1
41
1
41
1
10
234.8200567461995
20
-112.34301267530523
30
0
10
232.44829295549067
20
-112.34224061677961
30
0
10
231.26241106013623
20
-111.15635872142519
30
0
10
231.26241106013623
20
-108.86373092959253
30
0
0
LINE
5
289
100
AcDbEntity
8
0
100
AcDbLine
10
-380.87359383131127
20
184.9141725108131
30
0
11
-380.87359383131127
21
-184.9141725108131
31
0
0
LWPOLYLINE
5
290
100
AcDbEntity
8
0
100
AcDbPolyline
90
4
70
1
43
0.0
10
-380.87359383131127
20
-184.9141725108131
10
-380.87359383131127
20
184.9141725108131
10
380.87359383131127
20
184.9141725108131
10
380.87359383131127
20
-184.9141725108131
0
LINE
5
291
100
AcDbEntity
8
0
100
AcDbLine
10
-380.87359383131127
20
-184.9141725108131
30
0
11
380.87359383131127
21
-184.9141725108131
31
0
0
LINE
5
292
100
AcDbEntity
8
0
100
AcDbLine
10
380.87359383131127
20
-184.9141725108131
30
0
11
380.87359383131127
21
184.9141725108131
31
0
0
ENDSEC
0
SECTION
2
OBJECTS
0
DICTIONARY
5
C
100
AcDbDictionary
3
ACAD_GROUP
350
D
3
ACAD_MLINESTYLE
350
17
0
DICTIONARY
5
D
100
AcDbDictionary
0
DICTIONARY
5
1A
330
C
100
AcDbDictionary
0
DICTIONARY
5
17
100
AcDbDictionary
0
ENDSEC
0
EOF
